<mxfile host="app.diagrams.net" agent="Mozilla/5.0 (Windows NT 10.0; Win64; x64) AppleWebKit/537.36 (KHTML, like Gecko) Chrome/129.0.0.0 Safari/537.36" version="24.7.17">
  <diagram name="Page-1" id="KYmkSbGLZEnFrmZRzlHI">
    <mxGraphModel dx="2147" dy="935" grid="1" gridSize="10" guides="1" tooltips="1" connect="1" arrows="1" fold="1" page="1" pageScale="1" pageWidth="1100" pageHeight="850" math="1" shadow="0">
      <root>
        <mxCell id="0" />
        <mxCell id="1" parent="0" />
        <mxCell id="GXfllngR6K3mE_JyNZRc-7" style="edgeStyle=orthogonalEdgeStyle;rounded=0;orthogonalLoop=1;jettySize=auto;html=1;exitX=1;exitY=0.5;exitDx=0;exitDy=0;entryX=0;entryY=0.5;entryDx=0;entryDy=0;strokeWidth=2;" edge="1" parent="1" source="GXfllngR6K3mE_JyNZRc-1" target="GXfllngR6K3mE_JyNZRc-6">
          <mxGeometry relative="1" as="geometry" />
        </mxCell>
        <mxCell id="GXfllngR6K3mE_JyNZRc-1" value="$$Ax_{true}=b$$" style="rounded=0;whiteSpace=wrap;html=1;fillColor=#f5f5f5;strokeColor=#666666;fontSize=30;fontColor=#333333;" vertex="1" parent="1">
          <mxGeometry x="50" y="220" width="200" height="110" as="geometry" />
        </mxCell>
        <mxCell id="GXfllngR6K3mE_JyNZRc-9" style="edgeStyle=orthogonalEdgeStyle;rounded=0;orthogonalLoop=1;jettySize=auto;html=1;entryX=0.5;entryY=0;entryDx=0;entryDy=0;strokeWidth=2;" edge="1" parent="1" source="GXfllngR6K3mE_JyNZRc-2" target="GXfllngR6K3mE_JyNZRc-3">
          <mxGeometry relative="1" as="geometry" />
        </mxCell>
        <mxCell id="GXfllngR6K3mE_JyNZRc-2" value="GNNModel" style="rounded=0;whiteSpace=wrap;html=1;fillColor=#f5f5f5;strokeColor=#666666;fontSize=30;fontColor=#333333;" vertex="1" parent="1">
          <mxGeometry x="650" y="220" width="200" height="110" as="geometry" />
        </mxCell>
        <mxCell id="GXfllngR6K3mE_JyNZRc-11" style="edgeStyle=orthogonalEdgeStyle;rounded=0;orthogonalLoop=1;jettySize=auto;html=1;exitX=0;exitY=0.5;exitDx=0;exitDy=0;strokeWidth=2;" edge="1" parent="1" source="GXfllngR6K3mE_JyNZRc-3" target="GXfllngR6K3mE_JyNZRc-10">
          <mxGeometry relative="1" as="geometry" />
        </mxCell>
        <mxCell id="GXfllngR6K3mE_JyNZRc-3" value="$$x_{pred}$$" style="rounded=0;whiteSpace=wrap;html=1;fillColor=#f5f5f5;strokeColor=#666666;fontSize=30;fontColor=#333333;" vertex="1" parent="1">
          <mxGeometry x="650" y="400" width="200" height="110" as="geometry" />
        </mxCell>
        <mxCell id="GXfllngR6K3mE_JyNZRc-8" style="edgeStyle=orthogonalEdgeStyle;rounded=0;orthogonalLoop=1;jettySize=auto;html=1;exitX=1;exitY=0.5;exitDx=0;exitDy=0;strokeWidth=2;" edge="1" parent="1" source="GXfllngR6K3mE_JyNZRc-6" target="GXfllngR6K3mE_JyNZRc-2">
          <mxGeometry relative="1" as="geometry" />
        </mxCell>
        <mxCell id="GXfllngR6K3mE_JyNZRc-6" value="G(V,E)" style="rounded=0;whiteSpace=wrap;html=1;fillColor=#f5f5f5;strokeColor=#666666;fontSize=30;fontColor=#333333;" vertex="1" parent="1">
          <mxGeometry x="350" y="220" width="200" height="110" as="geometry" />
        </mxCell>
        <mxCell id="GXfllngR6K3mE_JyNZRc-12" style="edgeStyle=orthogonalEdgeStyle;rounded=0;orthogonalLoop=1;jettySize=auto;html=1;exitX=0.5;exitY=0;exitDx=0;exitDy=0;entryX=0.5;entryY=1;entryDx=0;entryDy=0;strokeWidth=3;dashed=1;fillColor=#f8cecc;strokeColor=#b85450;" edge="1" parent="1" source="GXfllngR6K3mE_JyNZRc-10" target="GXfllngR6K3mE_JyNZRc-6">
          <mxGeometry relative="1" as="geometry" />
        </mxCell>
        <mxCell id="GXfllngR6K3mE_JyNZRc-10" value="$$||Ax_{pred}-b||_2$$" style="rounded=0;whiteSpace=wrap;html=1;fillColor=#f5f5f5;strokeColor=#666666;fontSize=25;fontColor=#333333;" vertex="1" parent="1">
          <mxGeometry x="350" y="400" width="200" height="110" as="geometry" />
        </mxCell>
      </root>
    </mxGraphModel>
  </diagram>
</mxfile>
